# xmcd
#
# Track frame offsets:
#        150
#        6130
#        26962
#        43205
#        61192
#        74762
#        94112
#        115712
#        124712
#        142342
#        160082
#        184890
#
# Disc length: 2618 seconds
#
# Revision: 0
# Processed by: cddbd v1.5.1PL0 Copyright (c) Steve Scherf et al.
# Submitted via: ExactAudioCopy v0.95a5
#
DISCID=af0a380c
DTITLE=THE ZOOT 16 - RIGHT OUT!
DYEAR=2004
DGENRE=Rock
TTITLE0=What?
TTITLE1=Walkin'
TTITLE2=Left with a broken heart
TTITLE3=Fever
TTITLE4=Huracanlana
TTITLE5=Comes Love
TTITLE6=Oh! life
TTITLE7=Gus de gus
TTITLE8=Right out!
TTITLE9=619
TTITLE10=You've been gone too long baby
TTITLE11=33.222.1
EXTD=
EXTT0=
EXTT1=
EXTT2=
EXTT3=
EXTT4=
EXTT5=
EXTT6=
EXTT7=
EXTT8=
EXTT9=
EXTT10=
EXTT11=
PLAYORDER=
